Coordinates
version=1
nRows=19
nColumns=24
inDegrees=yes

Units are S.I. units (second, meters, Newtons, ...)
Angles are in degrees.

endheader
time	pelvis_tilt	pelvis_list	pelvis_rotation	pelvis_tx	pelvis_ty	pelvis_tz	hip_flexion_r	hip_adduction_r	hip_rotation_r	knee_angle_r	ankle_angle_r	subtalar_angle_r	mtp_angle_r	hip_flexion_l	hip_adduction_l	hip_rotation_l	knee_angle_l	ankle_angle_l	subtalar_angle_l	mtp_angle_l	lumbar_extension	lumbar_bending	lumbar_rotation
      1.33733333	      2.26164875	      9.07621902	     -5.45621044	      0.23053351	      1.00652668	      0.31365645	     15.49222136	    -12.48299907	     -1.18604029	    -73.85505234	     -9.23907528	    -15.17854043	      2.84901343	      5.89210267	     14.38938051	      3.43631923	    -10.92849322	      1.93923955	    -19.80764340	     -3.35940128	    -14.45851050	     -4.66241483	     -0.43275207
      1.34150000	      2.21724678	      8.88957264	     -5.42233033	      0.23547768	      1.00742828	      0.31350394	     16.12454589	    -12.19555867	     -1.19315109	    -73.65440751	     -8.61534282	    -15.31435922	      0.04139022	      5.33822081	     14.22556441	      3.67817294	    -10.41024000	      1.81879909	    -19.98817285	     -3.58746227	    -14.41873480	     -4.37686155	     -0.63975260
      1.34566667	      2.22681880	      8.68705656	     -5.43638138	      0.24040250	      1.00834890	      0.31344739	     16.69319038	    -11.87867219	     -1.15644272	    -73.39609587	     -7.97841477	    -15.38043770	      0.02304803	      4.76844026	     14.02903766	      3.69122983	     -9.97087322	      1.92397145	    -19.82743765	     -3.58678507	    -14.46386296	     -4.10134007	     -0.75111619
      1.34983333	      2.22318112	      8.49058388	     -5.41609128	      0.24532856	      1.00921307	      0.31333562	     17.25184980	    -11.57787150	     -1.15613630	    -73.07868443	     -7.38579639	    -15.43554553	     -0.00674820	      4.19953212	     13.84236498	      3.78157696	     -9.50938648	      2.00011457	    -19.69678085	     -3.58711083	    -14.47733126	     -3.81833446	     -0.94289827
      1.35400000	      2.23846807	      8.29409123	     -5.38092369	      0.25028748	      1.01008298	      0.31321228	     17.76310136	    -11.28882459	     -1.18677317	    -72.69637793	     -6.83273598	    -15.46464610	     -0.07388047	      3.59723829	     13.65752025	      3.89739357	     -9.02752845	      2.06761680	    -19.60766426	     -3.58980701	    -14.50002228	     -3.52694481	     -1.24588759
      1.35816667	      2.21849631	      8.08990611	     -5.34425018	      0.25520174	      1.01086161	      0.31310041	     18.30297338	    -10.97557276	     -1.20494665	    -72.26687902	     -6.27439108	    -15.55265514	     -0.11181948	      3.05108242	     13.45737251	      3.99096720	     -8.57599206	      2.09591531	    -19.51206160	     -3.59164742	    -14.51261616	     -3.23754298	     -1.39555423
      1.36233333	      2.21624048	      7.89444781	     -5.29385412	      0.26015871	      1.01162229	      0.31296120	     18.79965984	    -10.68857467	     -1.24980047	    -71.77768351	     -5.74035679	    -15.57819151	     -0.19296422	      2.47033836	     13.26862976	      4.10979963	     -8.09791891	      2.15693181	    -19.42832762	     -3.59421639	    -14.51109764	     -2.94276160	     -1.68756391
      1.36650000	      2.19897277	      7.70560122	     -5.24644331	      0.26506731	      1.01230117	      0.31284703	     19.30732556	    -10.39668488	     -1.27766602	    -71.24595430	     -5.19881494	    -15.61356678	     -0.25713032	      1.92471030	     13.08095809	      4.20161467	     -7.64676278	      2.19330229	    -19.32732885	     -3.59601515	    -14.52274330	     -2.66894379	     -1.87882657
      1.37066667	      2.18310309	      7.51849636	     -5.19388482	      0.27001084	      1.01294048	      0.31272516	     19.79285621	    -10.11560535	     -1.32421345	    -70.66246551	     -4.64795207	    -15.67383490	     -0.29118816	      1.37988312	     12.89322658	      4.27038997	     -7.20330223	      2.22523611	    -19.21245490	     -3.59649632	    -14.51006906	     -2.40197650	     -2.01472804
      1.37483333	      2.21355169	      7.33926952	     -5.14028156	      0.27494057	      1.01358729	      0.31259305	     20.21344415	     -9.85318138	     -1.36948741	    -70.02490643	     -4.13421488	    -15.63413727	     -0.37110359	      0.77321175	     12.71794488	      4.38135125	     -6.73189845	      2.29870283	    -19.09273549	     -3.59608535	    -14.56537256	     -2.12441044	     -2.31839657
      1.37900000	      2.17800550	      7.15015904	     -5.07578393	      0.27985909	      1.01411321	      0.31249951	     20.68503598	     -9.56059464	     -1.41109747	    -69.33304159	     -3.60023755	    -15.66955146	     -0.40746616	      0.26255280	     12.51996875	      4.44820573	     -6.31025545	      2.32689982	    -18.96816859	     -3.59542211	    -14.54721360	     -1.87160965	     -2.44812677
      1.38316667	      2.22774621	      6.99086627	     -5.01285689	      0.28479548	      1.01468093	      0.31236616	     21.05409588	     -9.33087449	     -1.46901527	    -68.60183030	     -3.07384432	    -15.62343759	     -0.52163479	     -0.35729171	     12.36272909	      4.54873594	     -5.84747553	      2.39141197	    -18.82463728	     -3.59207881	    -14.61900413	     -1.61742486	     -2.77769532
      1.38733333	      2.19684228	      6.80602163	     -4.94852510	      0.28972596	      1.01510620	      0.31226504	     21.48967910	     -9.04923394	     -1.50919419	    -67.81150609	     -2.57512634	    -15.60882482	     -0.55805755	     -0.86863323	     12.16727211	      4.61024718	     -5.43097682	      2.43644817	    -18.69853382	     -3.58942246	    -14.60314667	     -1.35282302	     -2.88314480
      1.39150000	      2.23604341	      6.64147008	     -4.88580622	      0.29466231	      1.01556426	      0.31215798	     21.83564961	     -8.80930229	     -1.55835572	    -66.97569111	     -2.08999980	    -15.51828139	     -0.63850161	     -1.46728174	     11.99835699	      4.70228155	     -4.98661135	      2.52502450	    -18.54441367	     -3.58234318	    -14.66647811	     -1.10349686	     -3.15717973
      1.39566667	      2.25164779	      6.49136755	     -4.81968029	      0.29959953	      1.01591805	      0.31205820	     22.19685038	     -8.58168614	     -1.60031163	    -66.10246695	     -1.59662591	    -15.44894058	     -0.71453409	     -2.02826382	     11.84062982	      4.77641388	     -4.56216077	      2.58335182	    -18.39829157	     -3.57479834	    -14.70195811	     -0.87536880	     -3.36350558
      1.39983333	      2.22824551	      6.33672870	     -4.74501627	      0.30453444	      1.01618821	      0.31196741	     22.57843475	     -8.34160063	     -1.63928487	    -65.17338563	     -1.12008031	    -15.40252882	     -0.75089430	     -2.53214346	     11.67247301	      4.84152121	     -4.16889512	      2.62389084	    -18.26095572	     -3.56927585	    -14.69337993	     -0.66123002	     -3.48868529
      1.40400000	      2.29280539	      6.18683683	     -4.67718458	      0.30948500	      1.01651867	      0.31187034	     22.84739221	     -8.12809078	     -1.68742913	    -64.19657354	     -0.67649347	    -15.28732310	     -0.82843187	     -3.14968693	     11.51491021	      4.93186164	     -3.73666101	      2.71025470	    -18.09793680	     -3.55656185	    -14.78970932	     -0.42456512	     -3.76042020
      1.40816667	      2.30458895	      6.06287711	     -4.60496414	      0.31442755	      1.01670235	      0.31178256	     23.16812435	     -7.93468128	     -1.72097745	    -63.18905482	     -0.24543085	    -15.18061828	     -0.89426828	     -3.69239830	     11.37933804	      5.00970799	     -3.33365770	      2.77886974	    -17.95503655	     -3.54434320	    -14.81805536	     -0.22699165	     -3.95119855
      1.41233333	      2.31896415	      5.91894679	     -4.52602363	      0.31937719	      1.01686177	      0.31169941	     23.45520638	     -7.72146898	     -1.76207659	    -62.11612394	      0.17062843	    -15.08677271	     -0.93395238	     -4.22934932	     11.22029489	      5.08057005	     -2.95286487	      2.83324915	    -17.81374126	     -3.53462217	    -14.85363197	     -0.02078783	     -4.09497758
